{"title":"Moon.Warriors.1993.REMASTERED.DVDRip.XviD.AC3-VanCo","uid":5691784,"size":1565630464,"categoryP":"video","categoryS":"movies","magnet":"?xt=urn:btih:2cbad624d353d476594720af69c0f7cfa12a7b20&amp;dn=Moon.Warriors.1993.REMASTERED.DVDRip.XviD.AC3-VanCo&amp;tr=udp%3A%2F%2Ftracker.openbittorrent.com%3A80&amp;tr=udp%3A%2F%2Fopen.demonii.com%3A1337&amp;tr=udp%3A%2F%2Ftracker.coppersurfer.tk%3A6969&amp;tr=udp%3A%2F%2Fexodus.desync.com%3A6969","seeders":1,"leechers":0,"uploader":"hiest","files":1,"time":1279119928,"description":"General\nComplete name                    : E:Moon.Warriors.1993.REMASTERED.DVDRip.XviD.AC3-VanCoMoon.Warriors.1993.REMASTERED.DVDRip.XviD.AC3-VanCo.avi\nFormat                           : AVI\nFormat/Info                      : Audio Video Interleave\nFile size                        : 1.46 GiB\nDuration                         : 1h 23mn\nOverall bit rate                 : 2 506 Kbps\nWriting application              : VirtualDubMod 1.5.10.2 (build 2540/release)\nWriting library                  : VirtualDubMod build 2540/release\n\nVideo\nID                               : 0\nFormat                           : MPEG-4 Visual\nFormat profile                   : Advanced Simple@L5\nFormat settings, BVOP            : Yes\nFormat settings, QPel            : No\nFormat settings, GMC             : No warppoints\nFormat settings, Matrix          : Default (H.263)\nMuxing mode                      : Packed bitstream\nCodec ID                         : XVID\nCodec ID/Hint                    : XviD\nDuration                         : 1h 23mn\nBit rate                         : 2 112 Kbps\nWidth                            : 640 pixels\nHeight                           : 352 pixels\nDisplay aspect ratio             : 16:9\nFrame rate                       : 25.000 fps\nResolution                       : 8 bits\nColorimetry                      : 4:2:0\nScan type                        : Progressive\nBits/(Pixel*Frame)               : 0.375\nStream size                      : 1.23 GiB (84%)\nWriting library                  : XviD 1.2.1 (UTC 2008-12-04)\n\nAudio\nID                               : 1\nFormat                           : AC-3\nFormat/Info                      : Audio Coding 3\nCodec ID                         : 2000\nDuration                         : 1h 23mn\nBit rate mode                    : Constant\nBit rate                         : 384 Kbps\nChannel(s)                       : 6 channels\nChannel positions                : Front: L C R, Surround: L R, LFE\nSampling rate                    : 48.0 KHz\nStream size                      : 229 MiB (15%)\nAlignment                        : Split accross interleaves\nInterleave, duration             : 40 ms (1.00 video frame)\nInterleave, preload duration     : 500 ms","torrent":{"xt":"urn:btih:2cbad624d353d476594720af69c0f7cfa12a7b20","amp;dn":"Moon.Warriors.1993.REMASTERED.DVDRip.XviD.AC3-VanCo","amp;tr":["udp%3A%2F%2Ftracker.openbittorrent.com%3A80","udp%3A%2F%2Fopen.demonii.com%3A1337","udp%3A%2F%2Ftracker.coppersurfer.tk%3A6969","udp%3A%2F%2Fexodus.desync.com%3A6969"],"infoHash":"2cbad624d353d476594720af69c0f7cfa12a7b20","infoHashBuffer":{"type":"Buffer","data":[44,186,214,36,211,83,212,118,89,71,32,175,105,192,247,207,161,42,123,32]},"announce":[],"urlList":[]}}